<svg xmlns="http://www.w3.org/2000/svg" viewBox="0 0 100 100">
  <rect width="100" height="100" fill="#2563eb" rx="20"/>
  <path fill="#fff" d="M49.95 82.31q-6.75 0-11.97-2.75-5.21-2.74-8.05-7.78-2.84-5.04-2.84-11.61V39.65q0-6.48 2.89-11.48 2.87-4.99 8.05-7.73 5.17-2.75 11.92-2.75 6.85 0 12.02 2.75 5.17 2.74 8.06 7.73 2.88 5 2.88 11.48v20.52q0 6.57-2.88 11.61-2.89 5.04-8.06 7.78-5.17 2.75-12.02 2.75Zm0-9q5.68 0 9.1-3.51 3.41-3.51 3.41-9.27V39.56q0-5.85-3.41-9.36-3.42-3.51-9.1-3.51-5.57 0-9 3.51-3.42 3.51-3.42 9.36v20.97q0 5.76 3.42 9.27 3.43 3.51 9 3.51Z"/>
</svg>
